# xmcd
#
# Track frame offsets: 
#        150
#        17722
#        30307
#        51970
#
# Disc length: 914 seconds
#
# Revision: 0
# Processed by: cddbd v1.5PL3 Copyright (c) Steve Scherf et al.
# Submitted via: ExactAudioCopy v0.95a3
#
DISCID=26039004
DTITLE=Trisha Yearwood - Beautiful You
DYEAR=2001
DGENRE=Country
TTITLE0=Real Live Woman
TTITLE1=xxx's and ooo's (An American Girl)
TTITLE2=Little Hercules
TTITLE3=I Would've Loved You Anyway
EXTD=
EXTT0=
EXTT1=
EXTT2=
EXTT3=
PLAYORDER=
